<svg width="472" height="41" viewBox="0 0 472 41" fill="none" xmlns="http://www.w3.org/2000/svg">
<path d="M0.523438 1.28906C2.65885 1.39323 5.35417 1.44531 8.60938 1.44531C17.8151 12.9818 22.763 19.1276 23.4531 19.8828C24.1432 20.625 24.4883 20.9961 24.4883 20.9961H24.6445C24.6966 18.4961 24.7227 16.4844 24.7227 14.9609C24.7227 11.9531 24.6576 8.41797 24.5273 4.35547C24.5013 3.18359 23.056 2.46745 20.1914 2.20703C20.1393 1.92057 20.1133 1.74479 20.1133 1.67969C20.1133 1.57552 20.1393 1.44531 20.1914 1.28906C22.2878 1.36719 24.1432 1.40625 25.7578 1.40625C26.7995 1.40625 28.5443 1.36719 30.9922 1.28906C31.0443 1.44531 31.0703 1.57552 31.0703 1.67969C31.0703 1.88802 31.0443 2.0638 30.9922 2.20703C28.1406 2.46745 26.7018 3.18359 26.6758 4.35547C26.5195 8.43099 26.4414 12.4479 26.4414 16.4062C26.4414 22.4609 26.5065 27.0182 26.6367 30.0781L26.2852 30.1172L6.87109 6.23047H6.67578C6.59766 9.60286 6.55859 13.0078 6.55859 16.4453C6.55859 19.4661 6.6237 22.9948 6.75391 27.0312C6.77995 28.2161 8.21875 28.9388 11.0703 29.1992C11.1354 29.4206 11.168 29.5964 11.168 29.7266C11.168 29.8568 11.1354 29.987 11.0703 30.1172C9 30.0391 7.15104 30 5.52344 30C4.48177 30 2.73698 30.0391 0.289062 30.1172C0.223958 29.987 0.191406 29.8568 0.191406 29.7266C0.191406 29.5052 0.223958 29.3294 0.289062 29.1992C3.16667 28.9258 4.60547 28.2031 4.60547 27.0312C4.76172 22.9688 4.83984 18.9583 4.83984 15C4.83984 10.7031 4.78776 6.97266 4.68359 3.80859C3.58984 2.85807 2.20312 2.32422 0.523438 2.20703C0.445312 2.03776 0.40625 1.88802 0.40625 1.75781C0.40625 1.5625 0.445312 1.40625 0.523438 1.28906ZM35.6016 17.168C35.6016 15.7357 36.2526 14.5573 37.5547 13.6328C38.8698 12.7083 40.4193 12.2461 42.2031 12.2461C44.3906 12.2461 45.9271 12.6823 46.8125 13.5547C47.7109 14.4271 48.1602 15.8984 48.1602 17.9688V26.0742C48.1602 26.8034 48.4271 27.168 48.9609 27.168C49.3906 27.168 49.9375 26.6471 50.6016 25.6055C51.0703 25.6445 51.3893 25.8529 51.5586 26.2305C51.4674 26.3607 51.3112 26.5951 51.0898 26.9336C50.8685 27.2721 50.7057 27.513 50.6016 27.6562C50.4974 27.7995 50.3346 28.0208 50.1133 28.3203C49.8919 28.6068 49.7096 28.8216 49.5664 28.9648C49.4362 29.1081 49.2539 29.2773 49.0195 29.4727C48.7982 29.668 48.5898 29.8177 48.3945 29.9219C48.2122 30.013 47.9974 30.0911 47.75 30.1562C47.5026 30.2344 47.2552 30.2734 47.0078 30.2734C46.3568 30.2734 45.8164 30.0391 45.3867 29.5703C44.9701 29.1016 44.7227 28.3789 44.6445 27.4023C44.6315 27.4154 44.4297 27.6042 44.0391 27.9688C43.6484 28.3333 43.375 28.5807 43.2188 28.7109C43.0755 28.8281 42.7956 29.043 42.3789 29.3555C41.9753 29.6549 41.6302 29.8698 41.3438 30C41.0573 30.1302 40.6992 30.2539 40.2695 30.3711C39.8398 30.5013 39.4167 30.5664 39 30.5664C38.3359 30.5664 37.7435 30.4753 37.2227 30.293C36.7148 30.1107 36.3177 29.8893 36.0312 29.6289C35.7448 29.3685 35.5104 29.069 35.3281 28.7305C35.1458 28.3789 35.0221 28.0599 34.957 27.7734C34.9049 27.487 34.8789 27.2005 34.8789 26.9141C34.8789 26.0417 35.0221 25.306 35.3086 24.707C35.6081 24.1081 36.1549 23.5482 36.9492 23.0273C37.7565 22.5065 38.7461 22.0443 39.918 21.6406C41.0898 21.237 42.6654 20.7812 44.6445 20.2734V17.5586C44.6445 16.2435 44.3516 15.2604 43.7656 14.6094C43.1927 13.9583 42.418 13.6328 41.4414 13.6328C40.569 13.6328 39.8333 13.8086 39.2344 14.1602C38.6484 14.4987 38.2904 14.8958 38.1602 15.3516C39.4362 15.5469 40.0742 16.2435 40.0742 17.4414C40.0742 17.9883 39.8789 18.4701 39.4883 18.8867C39.0977 19.3034 38.5508 19.5117 37.8477 19.5117C37.2617 19.5117 36.7409 19.3099 36.2852 18.9062C35.8294 18.4896 35.6016 17.9102 35.6016 17.168ZM44.6445 25.6055V21.5234C43.4466 21.7969 42.457 22.0964 41.6758 22.4219C40.8945 22.7344 40.2956 23.0794 39.8789 23.457C39.4753 23.8346 39.1953 24.2253 39.0391 24.6289C38.8828 25.0195 38.8047 25.4753 38.8047 25.9961C38.8047 26.6471 38.9935 27.1615 39.3711 27.5391C39.7617 27.9036 40.237 28.0859 40.7969 28.0859C42.099 28.0859 43.3815 27.2591 44.6445 25.6055ZM54.0391 13.9258C56.5651 13.6654 58.7656 13.1315 60.6406 12.3242C60.9661 12.4544 61.194 12.6237 61.3242 12.832V16.1914C61.806 15.2799 62.5221 14.3945 63.4727 13.5352C64.4362 12.6758 65.4388 12.2461 66.4805 12.2461C67.2617 12.2461 67.8932 12.4805 68.375 12.9492C68.8698 13.4049 69.1172 14.0365 69.1172 14.8438C69.1172 15.612 68.8893 16.2109 68.4336 16.6406C67.9779 17.0703 67.4049 17.2852 66.7148 17.2852C66.0768 17.2852 65.5495 17.0833 65.1328 16.6797C64.7292 16.263 64.5078 15.7161 64.4688 15.0391C63.9219 15.2734 63.2969 15.7943 62.5938 16.6016C61.9036 17.4089 61.4805 18.2096 61.3242 19.0039C61.3242 21.9076 61.3763 24.681 61.4805 27.3242C61.4935 27.6628 61.6172 27.9557 61.8516 28.2031C62.0859 28.4375 62.431 28.6198 62.8867 28.75C63.3424 28.8802 63.7201 28.9779 64.0195 29.043C64.319 29.0951 64.7096 29.1471 65.1914 29.1992C65.2695 29.3555 65.3086 29.5182 65.3086 29.6875C65.3086 29.8177 65.2695 29.9609 65.1914 30.1172C63.2383 30.0391 61.3047 30 59.3906 30C57.8021 30 56.1484 30.0391 54.4297 30.1172C54.3776 29.9089 54.3516 29.7656 54.3516 29.6875C54.3516 29.6224 54.3776 29.4596 54.4297 29.1992C54.8594 29.1471 55.2109 29.0951 55.4844 29.043C55.7578 28.9779 56.0964 28.8802 56.5 28.75C56.9036 28.6198 57.2096 28.4375 57.418 28.2031C57.6263 27.9557 57.737 27.6628 57.75 27.3242C57.8021 26.0352 57.8281 24.4727 57.8281 22.6367C57.8281 22.0247 57.8216 20.9831 57.8086 19.5117C57.7956 18.0404 57.7891 16.7513 57.7891 15.6445C57.0469 15.1888 55.7969 14.9219 54.0391 14.8438C53.987 14.6354 53.9609 14.4727 53.9609 14.3555C53.9609 14.2773 53.987 14.1341 54.0391 13.9258ZM73.4531 17.168C73.4531 15.7357 74.1042 14.5573 75.4062 13.6328C76.7214 12.7083 78.2708 12.2461 80.0547 12.2461C82.2422 12.2461 83.7786 12.6823 84.6641 13.5547C85.5625 14.4271 86.0117 15.8984 86.0117 17.9688V26.0742C86.0117 26.8034 86.2786 27.168 86.8125 27.168C87.2422 27.168 87.7891 26.6471 88.4531 25.6055C88.9219 25.6445 89.2409 25.8529 89.4102 26.2305C89.319 26.3607 89.1628 26.5951 88.9414 26.9336C88.7201 27.2721 88.5573 27.513 88.4531 27.6562C88.349 27.7995 88.1862 28.0208 87.9648 28.3203C87.7435 28.6068 87.5612 28.8216 87.418 28.9648C87.2878 29.1081 87.1055 29.2773 86.8711 29.4727C86.6497 29.668 86.4414 29.8177 86.2461 29.9219C86.0638 30.013 85.849 30.0911 85.6016 30.1562C85.3542 30.2344 85.1068 30.2734 84.8594 30.2734C84.2083 30.2734 83.668 30.0391 83.2383 29.5703C82.8216 29.1016 82.5742 28.3789 82.4961 27.4023C82.4831 27.4154 82.2812 27.6042 81.8906 27.9688C81.5 28.3333 81.2266 28.5807 81.0703 28.7109C80.9271 28.8281 80.6471 29.043 80.2305 29.3555C79.8268 29.6549 79.4818 29.8698 79.1953 30C78.9089 30.1302 78.5508 30.2539 78.1211 30.3711C77.6914 30.5013 77.2682 30.5664 76.8516 30.5664C76.1875 30.5664 75.5951 30.4753 75.0742 30.293C74.5664 30.1107 74.1693 29.8893 73.8828 29.6289C73.5964 29.3685 73.362 29.069 73.1797 28.7305C72.9974 28.3789 72.8737 28.0599 72.8086 27.7734C72.7565 27.487 72.7305 27.2005 72.7305 26.9141C72.7305 26.0417 72.8737 25.306 73.1602 24.707C73.4596 24.1081 74.0065 23.5482 74.8008 23.0273C75.6081 22.5065 76.5977 22.0443 77.7695 21.6406C78.9414 21.237 80.5169 20.7812 82.4961 20.2734V17.5586C82.4961 16.2435 82.2031 15.2604 81.6172 14.6094C81.0443 13.9583 80.2695 13.6328 79.293 13.6328C78.4206 13.6328 77.6849 13.8086 77.0859 14.1602C76.5 14.4987 76.1419 14.8958 76.0117 15.3516C77.2878 15.5469 77.9258 16.2435 77.9258 17.4414C77.9258 17.9883 77.7305 18.4701 77.3398 18.8867C76.9492 19.3034 76.4023 19.5117 75.6992 19.5117C75.1133 19.5117 74.5924 19.3099 74.1367 18.9062C73.681 18.4896 73.4531 17.9102 73.4531 17.168ZM82.4961 25.6055V21.5234C81.2982 21.7969 80.3086 22.0964 79.5273 22.4219C78.7461 22.7344 78.1471 23.0794 77.7305 23.457C77.3268 23.8346 77.0469 24.2253 76.8906 24.6289C76.7344 25.0195 76.6562 25.4753 76.6562 25.9961C76.6562 26.6471 76.8451 27.1615 77.2227 27.5391C77.6133 27.9036 78.0885 28.0859 78.6484 28.0859C79.9505 28.0859 81.2331 27.2591 82.4961 25.6055ZM89.0781 12.6758C90.7969 12.7539 92.5352 12.793 94.293 12.793C95.8945 12.793 97.5352 12.7539 99.2148 12.6758C99.2669 12.8841 99.293 13.0469 99.293 13.1641C99.293 13.2422 99.2669 13.3854 99.2148 13.5938C98.8242 13.6198 98.5117 13.6523 98.2773 13.6914C98.043 13.7174 97.737 13.7695 97.3594 13.8477C96.9948 13.9258 96.7148 14.043 96.5195 14.1992C96.3372 14.3555 96.2461 14.5443 96.2461 14.7656C96.2461 14.8828 96.2982 15.1237 96.4023 15.4883L100.367 25.3516H100.484L104.254 15.4883C104.384 15.1628 104.449 14.8828 104.449 14.6484C104.449 14.0495 103.701 13.6979 102.203 13.5938C102.151 13.3854 102.125 13.2422 102.125 13.1641C102.125 13.0469 102.151 12.8841 102.203 12.6758C103.727 12.7539 104.677 12.793 105.055 12.793C106.148 12.793 107.535 12.7539 109.215 12.6758C109.267 12.832 109.293 12.9688 109.293 13.0859C109.293 13.1641 109.267 13.3333 109.215 13.5938C107.587 13.6589 106.533 14.2904 106.051 15.4883L100.016 29.9219H100.055L97.8867 35.6055C97.0794 37.7148 96.3242 39.1406 95.6211 39.8828C94.931 40.625 94.0456 40.9961 92.9648 40.9961C92.0924 40.9961 91.3633 40.7357 90.7773 40.2148C90.2044 39.694 89.918 39.0104 89.918 38.1641C89.918 37.3958 90.1328 36.7904 90.5625 36.3477C90.9922 35.9049 91.526 35.6836 92.1641 35.6836C92.75 35.6836 93.1992 35.8594 93.5117 36.2109C93.8372 36.5625 94 36.9596 94 37.4023C94 38.0273 93.7201 38.5221 93.1602 38.8867C93.2253 39.1732 93.4401 39.3164 93.8047 39.3164C94.2214 39.3164 94.612 39.0755 94.9766 38.5938C95.3411 38.125 95.8164 37.1159 96.4023 35.5664L98.5703 30L92.4766 15.4883C92.3333 15.1628 92.1315 14.8828 91.8711 14.6484C91.6107 14.401 91.2917 14.2122 90.9141 14.082C90.5495 13.9388 90.2435 13.8411 89.9961 13.7891C89.7487 13.724 89.4427 13.6589 89.0781 13.5938C89.026 13.4896 89 13.3464 89 13.1641C89 12.9688 89.026 12.806 89.0781 12.6758ZM111.812 17.168C111.812 15.7357 112.464 14.5573 113.766 13.6328C115.081 12.7083 116.63 12.2461 118.414 12.2461C120.602 12.2461 122.138 12.6823 123.023 13.5547C123.922 14.4271 124.371 15.8984 124.371 17.9688V26.0742C124.371 26.8034 124.638 27.168 125.172 27.168C125.602 27.168 126.148 26.6471 126.812 25.6055C127.281 25.6445 127.6 25.8529 127.77 26.2305C127.678 26.3607 127.522 26.5951 127.301 26.9336C127.079 27.2721 126.917 27.513 126.812 27.6562C126.708 27.7995 126.546 28.0208 126.324 28.3203C126.103 28.6068 125.921 28.8216 125.777 28.9648C125.647 29.1081 125.465 29.2773 125.23 29.4727C125.009 29.668 124.801 29.8177 124.605 29.9219C124.423 30.013 124.208 30.0911 123.961 30.1562C123.714 30.2344 123.466 30.2734 123.219 30.2734C122.568 30.2734 122.027 30.0391 121.598 29.5703C121.181 29.1016 120.934 28.3789 120.855 27.4023C120.842 27.4154 120.641 27.6042 120.25 27.9688C119.859 28.3333 119.586 28.5807 119.43 28.7109C119.286 28.8281 119.007 29.043 118.59 29.3555C118.186 29.6549 117.841 29.8698 117.555 30C117.268 30.1302 116.91 30.2539 116.48 30.3711C116.051 30.5013 115.628 30.5664 115.211 30.5664C114.547 30.5664 113.954 30.4753 113.434 30.293C112.926 30.1107 112.529 29.8893 112.242 29.6289C111.956 29.3685 111.721 29.069 111.539 28.7305C111.357 28.3789 111.233 28.0599 111.168 27.7734C111.116 27.487 111.09 27.2005 111.09 26.9141C111.09 26.0417 111.233 25.306 111.52 24.707C111.819 24.1081 112.366 23.5482 113.16 23.0273C113.967 22.5065 114.957 22.0443 116.129 21.6406C117.301 21.237 118.876 20.7812 120.855 20.2734V17.5586C120.855 16.2435 120.562 15.2604 119.977 14.6094C119.404 13.9583 118.629 13.6328 117.652 13.6328C116.78 13.6328 116.044 13.8086 115.445 14.1602C114.859 14.4987 114.501 14.8958 114.371 15.3516C115.647 15.5469 116.285 16.2435 116.285 17.4414C116.285 17.9883 116.09 18.4701 115.699 18.8867C115.309 19.3034 114.762 19.5117 114.059 19.5117C113.473 19.5117 112.952 19.3099 112.496 18.9062C112.04 18.4896 111.812 17.9102 111.812 17.168ZM120.855 25.6055V21.5234C119.658 21.7969 118.668 22.0964 117.887 22.4219C117.105 22.7344 116.507 23.0794 116.09 23.457C115.686 23.8346 115.406 24.2253 115.25 24.6289C115.094 25.0195 115.016 25.4753 115.016 25.9961C115.016 26.6471 115.204 27.1615 115.582 27.5391C115.973 27.9036 116.448 28.0859 117.008 28.0859C118.31 28.0859 119.592 27.2591 120.855 25.6055ZM140.602 29.1992C140.68 29.3555 140.719 29.5182 140.719 29.6875C140.719 29.8177 140.68 29.9609 140.602 30.1172C138.883 30.0391 137.216 30 135.602 30C134.013 30 132.359 30.0391 130.641 30.1172C130.589 29.9089 130.562 29.7656 130.562 29.6875C130.562 29.6224 130.589 29.4596 130.641 29.1992C131.07 29.1471 131.422 29.0951 131.695 29.043C131.969 28.9779 132.307 28.8802 132.711 28.75C133.115 28.6198 133.421 28.4375 133.629 28.2031C133.837 27.9557 133.948 27.6628 133.961 27.3242C134.013 26.0352 134.039 24.4727 134.039 22.6367C134.039 22.0247 134.033 20.9831 134.02 19.5117C134.007 18.0404 134 16.7513 134 15.6445C133.258 15.1888 132.008 14.9219 130.25 14.8438C130.198 14.6354 130.172 14.4727 130.172 14.3555C130.172 14.2773 130.198 14.1341 130.25 13.9258C132.776 13.6654 134.977 13.1315 136.852 12.3242C137.177 12.4544 137.405 12.6237 137.535 12.832V15.918C138.798 14.8112 140.009 13.9258 141.168 13.2617C142.327 12.5846 143.499 12.2461 144.684 12.2461C146.168 12.2461 147.216 12.6628 147.828 13.4961C148.453 14.3294 148.779 15.6315 148.805 17.4023L149 27.3242C149.013 27.6628 149.111 27.9557 149.293 28.2031C149.488 28.4375 149.762 28.6198 150.113 28.75C150.478 28.8802 150.777 28.9779 151.012 29.043C151.246 29.0951 151.552 29.1471 151.93 29.1992C151.982 29.4596 152.008 29.6354 152.008 29.7266C152.008 29.8307 151.982 29.9609 151.93 30.1172C150.25 30.0391 148.701 30 147.281 30C145.901 30 144.371 30.0391 142.691 30.1172C142.639 29.9089 142.613 29.7526 142.613 29.6484C142.613 29.5573 142.639 29.4076 142.691 29.1992C143.03 29.1471 143.31 29.0951 143.531 29.043C143.766 28.9779 144.026 28.8802 144.312 28.75C144.612 28.6198 144.833 28.4375 144.977 28.2031C145.133 27.9557 145.211 27.6628 145.211 27.3242L145.25 18.0469C145.25 15.6901 144.54 14.5117 143.121 14.5117C141.793 14.5117 139.931 15.3971 137.535 17.168C137.535 20.957 137.587 24.3424 137.691 27.3242C137.704 27.6628 137.802 27.9557 137.984 28.2031C138.18 28.4375 138.453 28.6198 138.805 28.75C139.156 28.8802 139.449 28.9779 139.684 29.043C139.918 29.0951 140.224 29.1471 140.602 29.1992ZM156.344 17.168C156.344 15.7357 156.995 14.5573 158.297 13.6328C159.612 12.7083 161.161 12.2461 162.945 12.2461C165.133 12.2461 166.669 12.6823 167.555 13.5547C168.453 14.4271 168.902 15.8984 168.902 17.9688V26.0742C168.902 26.8034 169.169 27.168 169.703 27.168C170.133 27.168 170.68 26.6471 171.344 25.6055C171.812 25.6445 172.132 25.8529 172.301 26.2305C172.21 26.3607 172.053 26.5951 171.832 26.9336C171.611 27.2721 171.448 27.513 171.344 27.6562C171.24 27.7995 171.077 28.0208 170.855 28.3203C170.634 28.6068 170.452 28.8216 170.309 28.9648C170.178 29.1081 169.996 29.2773 169.762 29.4727C169.54 29.668 169.332 29.8177 169.137 29.9219C168.954 30.013 168.74 30.0911 168.492 30.1562C168.245 30.2344 167.997 30.2734 167.75 30.2734C167.099 30.2734 166.559 30.0391 166.129 29.5703C165.712 29.1016 165.465 28.3789 165.387 27.4023C165.374 27.4154 165.172 27.6042 164.781 27.9688C164.391 28.3333 164.117 28.5807 163.961 28.7109C163.818 28.8281 163.538 29.043 163.121 29.3555C162.717 29.6549 162.372 29.8698 162.086 30C161.799 30.1302 161.441 30.2539 161.012 30.3711C160.582 30.5013 160.159 30.5664 159.742 30.5664C159.078 30.5664 158.486 30.4753 157.965 30.293C157.457 30.1107 157.06 29.8893 156.773 29.6289C156.487 29.3685 156.253 29.069 156.07 28.7305C155.888 28.3789 155.764 28.0599 155.699 27.7734C155.647 27.487 155.621 27.2005 155.621 26.9141C155.621 26.0417 155.764 25.306 156.051 24.707C156.35 24.1081 156.897 23.5482 157.691 23.0273C158.499 22.5065 159.488 22.0443 160.66 21.6406C161.832 21.237 163.408 20.7812 165.387 20.2734V17.5586C165.387 16.2435 165.094 15.2604 164.508 14.6094C163.935 13.9583 163.16 13.6328 162.184 13.6328C161.311 13.6328 160.576 13.8086 159.977 14.1602C159.391 14.4987 159.033 14.8958 158.902 15.3516C160.178 15.5469 160.816 16.2435 160.816 17.4414C160.816 17.9883 160.621 18.4701 160.23 18.8867C159.84 19.3034 159.293 19.5117 158.59 19.5117C158.004 19.5117 157.483 19.3099 157.027 18.9062C156.572 18.4896 156.344 17.9102 156.344 17.168ZM165.387 25.6055V21.5234C164.189 21.7969 163.199 22.0964 162.418 22.4219C161.637 22.7344 161.038 23.0794 160.621 23.457C160.217 23.8346 159.938 24.2253 159.781 24.6289C159.625 25.0195 159.547 25.4753 159.547 25.9961C159.547 26.6471 159.736 27.1615 160.113 27.5391C160.504 27.9036 160.979 28.0859 161.539 28.0859C162.841 28.0859 164.124 27.2591 165.387 25.6055ZM197.945 29.1992C198.271 29.1471 198.538 29.0951 198.746 29.043C198.967 28.9779 199.208 28.8802 199.469 28.75C199.729 28.6198 199.924 28.4375 200.055 28.2031C200.185 27.9557 200.25 27.6628 200.25 27.3242L200.289 18.0469C200.289 15.6901 199.586 14.5117 198.18 14.5117C197.477 14.5117 196.715 14.7331 195.895 15.1758C195.074 15.6185 194.091 16.2826 192.945 17.168V17.4023L193.102 27.3242C193.115 27.6628 193.212 27.9557 193.395 28.2031C193.59 28.4375 193.863 28.6198 194.215 28.75C194.566 28.8802 194.859 28.9779 195.094 29.043C195.328 29.0951 195.634 29.1471 196.012 29.1992C196.064 29.4596 196.09 29.6354 196.09 29.7266C196.09 29.8307 196.064 29.9609 196.012 30.1172C194.332 30.0391 192.802 30 191.422 30C190.159 30 188.688 30.0391 187.008 30.1172C186.956 29.9089 186.93 29.7526 186.93 29.6484C186.93 29.5573 186.956 29.4076 187.008 29.1992C187.333 29.1471 187.607 29.0951 187.828 29.043C188.049 28.9779 188.29 28.8802 188.551 28.75C188.811 28.6198 189.007 28.4375 189.137 28.2031C189.267 27.9557 189.332 27.6628 189.332 27.3242L189.371 18.0469C189.371 15.6901 188.668 14.5117 187.262 14.5117C186.559 14.5117 185.81 14.7266 185.016 15.1562C184.234 15.5859 183.251 16.2435 182.066 17.1289C182.066 20.944 182.118 24.3424 182.223 27.3242C182.236 27.6628 182.327 27.9557 182.496 28.2031C182.665 28.4375 182.906 28.6198 183.219 28.75C183.544 28.8802 183.824 28.9779 184.059 29.043C184.293 29.0951 184.586 29.1471 184.938 29.1992C185.016 29.3555 185.055 29.5182 185.055 29.6875C185.055 29.8177 185.016 29.9609 184.938 30.1172C183.219 30.0391 181.617 30 180.133 30C178.544 30 176.891 30.0391 175.172 30.1172C175.12 29.9089 175.094 29.7656 175.094 29.6875C175.094 29.6224 175.12 29.4596 175.172 29.1992C175.602 29.1471 175.953 29.0951 176.227 29.043C176.5 28.9779 176.839 28.8802 177.242 28.75C177.646 28.6198 177.952 28.4375 178.16 28.2031C178.368 27.9557 178.479 27.6628 178.492 27.3242C178.544 26.0352 178.57 24.4727 178.57 22.6367C178.57 22.0247 178.564 20.9831 178.551 19.5117C178.538 18.0404 178.531 16.7513 178.531 15.6445C177.789 15.1888 176.539 14.9219 174.781 14.8438C174.729 14.6354 174.703 14.4727 174.703 14.3555C174.703 14.2773 174.729 14.1341 174.781 13.9258C177.307 13.6654 179.508 13.1315 181.383 12.3242C181.708 12.4544 181.936 12.6237 182.066 12.832V15.918C182.678 15.3581 183.193 14.9089 183.609 14.5703C184.026 14.2188 184.534 13.8411 185.133 13.4375C185.745 13.0339 186.35 12.7344 186.949 12.5391C187.561 12.3438 188.186 12.2461 188.824 12.2461C190.1 12.2461 191.051 12.5521 191.676 13.1641C192.301 13.763 192.691 14.707 192.848 15.9961C193.512 15.3971 194.039 14.9349 194.43 14.6094C194.833 14.2839 195.354 13.9062 195.992 13.4766C196.63 13.0469 197.255 12.7344 197.867 12.5391C198.479 12.3438 199.104 12.2461 199.742 12.2461C201.214 12.2461 202.262 12.6628 202.887 13.4961C203.512 14.3294 203.837 15.6315 203.863 17.4023L204.059 27.3242C204.072 27.6628 204.169 27.9557 204.352 28.2031C204.547 28.4375 204.82 28.6198 205.172 28.75C205.523 28.8802 205.816 28.9779 206.051 29.043C206.285 29.0951 206.591 29.1471 206.969 29.1992C207.034 29.5247 207.066 29.7005 207.066 29.7266C207.066 29.7917 207.034 29.9219 206.969 30.1172C205.289 30.0391 203.746 30 202.34 30C201.09 30 199.625 30.0391 197.945 30.1172C197.88 29.8568 197.848 29.7005 197.848 29.6484C197.848 29.6094 197.88 29.4596 197.945 29.1992ZM221.324 1.28906C224.267 1.39323 226.578 1.44531 228.258 1.44531C229.846 1.44531 232.112 1.39323 235.055 1.28906C235.107 1.4974 235.133 1.64062 235.133 1.71875C235.133 1.86198 235.107 2.02474 235.055 2.20703C234.456 2.25911 233.967 2.31771 233.59 2.38281C233.212 2.4349 232.75 2.52604 232.203 2.65625C231.656 2.78646 231.24 2.97526 230.953 3.22266C230.667 3.45703 230.523 3.74349 230.523 4.08203C230.51 4.92839 230.491 6.91406 230.465 10.0391C230.452 13.1641 230.432 16.0872 230.406 18.8086C230.38 20.9831 230.341 22.7669 230.289 24.1602C230.25 25.5404 230.159 27.0768 230.016 28.7695C229.885 30.4492 229.697 31.7969 229.449 32.8125C229.215 33.8411 228.889 34.8893 228.473 35.957C228.056 37.0378 227.548 37.8646 226.949 38.4375C226.363 39.0104 225.641 39.4792 224.781 39.8438C223.922 40.2083 222.932 40.3906 221.812 40.3906C219.924 40.3906 218.46 39.9284 217.418 39.0039C216.376 38.0794 215.855 36.9857 215.855 35.7227C215.855 34.6419 216.142 33.8021 216.715 33.2031C217.288 32.6172 218.043 32.3242 218.98 32.3242C219.749 32.3242 220.406 32.5326 220.953 32.9492C221.5 33.3659 221.773 33.9844 221.773 34.8047C221.773 35.2474 221.663 35.638 221.441 35.9766C221.22 36.3281 220.973 36.582 220.699 36.7383C220.439 36.9076 220.198 37.0573 219.977 37.1875C219.755 37.3307 219.645 37.4284 219.645 37.4805C219.645 37.9753 219.833 38.3789 220.211 38.6914C220.602 39.0039 221.135 39.1602 221.812 39.1602C222.542 39.1602 223.154 39.0234 223.648 38.75C224.156 38.4766 224.566 38.0924 224.879 37.5977C225.204 37.1029 225.452 36.4128 225.621 35.5273C225.79 34.6419 225.901 33.6979 225.953 32.6953C226.018 31.6927 226.051 30.4362 226.051 28.9258C226.051 16.0612 225.986 7.77995 225.855 4.08203C225.842 3.74349 225.693 3.45703 225.406 3.22266C225.12 2.97526 224.703 2.78646 224.156 2.65625C223.609 2.52604 223.147 2.4349 222.77 2.38281C222.405 2.31771 221.923 2.25911 221.324 2.20703C221.272 1.97266 221.246 1.8099 221.246 1.71875C221.246 1.58854 221.272 1.44531 221.324 1.28906ZM247.984 29.1992C248.062 29.3555 248.102 29.5182 248.102 29.6875C248.102 29.8177 248.062 29.9609 247.984 30.1172C246.266 30.0391 244.599 30 242.984 30C241.396 30 239.742 30.0391 238.023 30.1172C237.971 29.9089 237.945 29.7656 237.945 29.6875C237.945 29.6224 237.971 29.4596 238.023 29.1992C238.453 29.1471 238.805 29.0951 239.078 29.043C239.352 28.9779 239.69 28.8802 240.094 28.75C240.497 28.6198 240.803 28.4375 241.012 28.2031C241.22 27.9557 241.331 27.6628 241.344 27.3242C241.396 26.0352 241.422 24.4727 241.422 22.6367C241.422 22.0247 241.415 20.9831 241.402 19.5117C241.389 18.0404 241.383 16.7513 241.383 15.6445C240.641 15.1888 239.391 14.9219 237.633 14.8438C237.581 14.6354 237.555 14.4727 237.555 14.3555C237.555 14.2773 237.581 14.1341 237.633 13.9258C240.159 13.6654 242.359 13.1315 244.234 12.3242C244.56 12.4544 244.788 12.6237 244.918 12.832V15.918C246.181 14.8112 247.392 13.9258 248.551 13.2617C249.71 12.5846 250.882 12.2461 252.066 12.2461C253.551 12.2461 254.599 12.6628 255.211 13.4961C255.836 14.3294 256.161 15.6315 256.188 17.4023L256.383 27.3242C256.396 27.6628 256.493 27.9557 256.676 28.2031C256.871 28.4375 257.145 28.6198 257.496 28.75C257.861 28.8802 258.16 28.9779 258.395 29.043C258.629 29.0951 258.935 29.1471 259.312 29.1992C259.365 29.4596 259.391 29.6354 259.391 29.7266C259.391 29.8307 259.365 29.9609 259.312 30.1172C257.633 30.0391 256.083 30 254.664 30C253.284 30 251.754 30.0391 250.074 30.1172C250.022 29.9089 249.996 29.7526 249.996 29.6484C249.996 29.5573 250.022 29.4076 250.074 29.1992C250.413 29.1471 250.693 29.0951 250.914 29.043C251.148 28.9779 251.409 28.8802 251.695 28.75C251.995 28.6198 252.216 28.4375 252.359 28.2031C252.516 27.9557 252.594 27.6628 252.594 27.3242L252.633 18.0469C252.633 15.6901 251.923 14.5117 250.504 14.5117C249.176 14.5117 247.314 15.3971 244.918 17.168C244.918 20.957 244.97 24.3424 245.074 27.3242C245.087 27.6628 245.185 27.9557 245.367 28.2031C245.562 28.4375 245.836 28.6198 246.188 28.75C246.539 28.8802 246.832 28.9779 247.066 29.043C247.301 29.0951 247.607 29.1471 247.984 29.1992ZM263.727 17.168C263.727 15.7357 264.378 14.5573 265.68 13.6328C266.995 12.7083 268.544 12.2461 270.328 12.2461C272.516 12.2461 274.052 12.6823 274.938 13.5547C275.836 14.4271 276.285 15.8984 276.285 17.9688V26.0742C276.285 26.8034 276.552 27.168 277.086 27.168C277.516 27.168 278.062 26.6471 278.727 25.6055C279.195 25.6445 279.514 25.8529 279.684 26.2305C279.592 26.3607 279.436 26.5951 279.215 26.9336C278.993 27.2721 278.831 27.513 278.727 27.6562C278.622 27.7995 278.46 28.0208 278.238 28.3203C278.017 28.6068 277.835 28.8216 277.691 28.9648C277.561 29.1081 277.379 29.2773 277.145 29.4727C276.923 29.668 276.715 29.8177 276.52 29.9219C276.337 30.013 276.122 30.0911 275.875 30.1562C275.628 30.2344 275.38 30.2734 275.133 30.2734C274.482 30.2734 273.941 30.0391 273.512 29.5703C273.095 29.1016 272.848 28.3789 272.77 27.4023C272.757 27.4154 272.555 27.6042 272.164 27.9688C271.773 28.3333 271.5 28.5807 271.344 28.7109C271.201 28.8281 270.921 29.043 270.504 29.3555C270.1 29.6549 269.755 29.8698 269.469 30C269.182 30.1302 268.824 30.2539 268.395 30.3711C267.965 30.5013 267.542 30.5664 267.125 30.5664C266.461 30.5664 265.868 30.4753 265.348 30.293C264.84 30.1107 264.443 29.8893 264.156 29.6289C263.87 29.3685 263.635 29.069 263.453 28.7305C263.271 28.3789 263.147 28.0599 263.082 27.7734C263.03 27.487 263.004 27.2005 263.004 26.9141C263.004 26.0417 263.147 25.306 263.434 24.707C263.733 24.1081 264.28 23.5482 265.074 23.0273C265.882 22.5065 266.871 22.0443 268.043 21.6406C269.215 21.237 270.79 20.7812 272.77 20.2734V17.5586C272.77 16.2435 272.477 15.2604 271.891 14.6094C271.318 13.9583 270.543 13.6328 269.566 13.6328C268.694 13.6328 267.958 13.8086 267.359 14.1602C266.773 14.4987 266.415 14.8958 266.285 15.3516C267.561 15.5469 268.199 16.2435 268.199 17.4414C268.199 17.9883 268.004 18.4701 267.613 18.8867C267.223 19.3034 266.676 19.5117 265.973 19.5117C265.387 19.5117 264.866 19.3099 264.41 18.9062C263.954 18.4896 263.727 17.9102 263.727 17.168ZM272.77 25.6055V21.5234C271.572 21.7969 270.582 22.0964 269.801 22.4219C269.02 22.7344 268.421 23.0794 268.004 23.457C267.6 23.8346 267.32 24.2253 267.164 24.6289C267.008 25.0195 266.93 25.4753 266.93 25.9961C266.93 26.6471 267.118 27.1615 267.496 27.5391C267.887 27.9036 268.362 28.0859 268.922 28.0859C270.224 28.0859 271.507 27.2591 272.77 25.6055ZM292.516 29.1992C292.594 29.3555 292.633 29.5182 292.633 29.6875C292.633 29.8177 292.594 29.9609 292.516 30.1172C290.797 30.0391 289.13 30 287.516 30C285.927 30 284.273 30.0391 282.555 30.1172C282.503 29.9089 282.477 29.7656 282.477 29.6875C282.477 29.6224 282.503 29.4596 282.555 29.1992C282.984 29.1471 283.336 29.0951 283.609 29.043C283.883 28.9779 284.221 28.8802 284.625 28.75C285.029 28.6198 285.335 28.4375 285.543 28.2031C285.751 27.9557 285.862 27.6628 285.875 27.3242C285.927 26.0352 285.953 24.4727 285.953 22.6367C285.953 22.0247 285.947 20.9831 285.934 19.5117C285.921 18.0404 285.914 16.7513 285.914 15.6445C285.172 15.1888 283.922 14.9219 282.164 14.8438C282.112 14.6354 282.086 14.4727 282.086 14.3555C282.086 14.2773 282.112 14.1341 282.164 13.9258C284.69 13.6654 286.891 13.1315 288.766 12.3242C289.091 12.4544 289.319 12.6237 289.449 12.832V15.918C290.712 14.8112 291.923 13.9258 293.082 13.2617C294.241 12.5846 295.413 12.2461 296.598 12.2461C298.082 12.2461 299.13 12.6628 299.742 13.4961C300.367 14.3294 300.693 15.6315 300.719 17.4023L300.914 27.3242C300.927 27.6628 301.025 27.9557 301.207 28.2031C301.402 28.4375 301.676 28.6198 302.027 28.75C302.392 28.8802 302.691 28.9779 302.926 29.043C303.16 29.0951 303.466 29.1471 303.844 29.1992C303.896 29.4596 303.922 29.6354 303.922 29.7266C303.922 29.8307 303.896 29.9609 303.844 30.1172C302.164 30.0391 300.615 30 299.195 30C297.815 30 296.285 30.0391 294.605 30.1172C294.553 29.9089 294.527 29.7526 294.527 29.6484C294.527 29.5573 294.553 29.4076 294.605 29.1992C294.944 29.1471 295.224 29.0951 295.445 29.043C295.68 28.9779 295.94 28.8802 296.227 28.75C296.526 28.6198 296.747 28.4375 296.891 28.2031C297.047 27.9557 297.125 27.6628 297.125 27.3242L297.164 18.0469C297.164 15.6901 296.454 14.5117 295.035 14.5117C293.707 14.5117 291.845 15.3971 289.449 17.168C289.449 20.957 289.501 24.3424 289.605 27.3242C289.618 27.6628 289.716 27.9557 289.898 28.2031C290.094 28.4375 290.367 28.6198 290.719 28.75C291.07 28.8802 291.363 28.9779 291.598 29.043C291.832 29.0951 292.138 29.1471 292.516 29.1992ZM308.258 17.168C308.258 15.7357 308.909 14.5573 310.211 13.6328C311.526 12.7083 313.076 12.2461 314.859 12.2461C317.047 12.2461 318.583 12.6823 319.469 13.5547C320.367 14.4271 320.816 15.8984 320.816 17.9688V26.0742C320.816 26.8034 321.083 27.168 321.617 27.168C322.047 27.168 322.594 26.6471 323.258 25.6055C323.727 25.6445 324.046 25.8529 324.215 26.2305C324.124 26.3607 323.967 26.5951 323.746 26.9336C323.525 27.2721 323.362 27.513 323.258 27.6562C323.154 27.7995 322.991 28.0208 322.77 28.3203C322.548 28.6068 322.366 28.8216 322.223 28.9648C322.092 29.1081 321.91 29.2773 321.676 29.4727C321.454 29.668 321.246 29.8177 321.051 29.9219C320.868 30.013 320.654 30.0911 320.406 30.1562C320.159 30.2344 319.911 30.2734 319.664 30.2734C319.013 30.2734 318.473 30.0391 318.043 29.5703C317.626 29.1016 317.379 28.3789 317.301 27.4023C317.288 27.4154 317.086 27.6042 316.695 27.9688C316.305 28.3333 316.031 28.5807 315.875 28.7109C315.732 28.8281 315.452 29.043 315.035 29.3555C314.632 29.6549 314.286 29.8698 314 30C313.714 30.1302 313.355 30.2539 312.926 30.3711C312.496 30.5013 312.073 30.5664 311.656 30.5664C310.992 30.5664 310.4 30.4753 309.879 30.293C309.371 30.1107 308.974 29.8893 308.688 29.6289C308.401 29.3685 308.167 29.069 307.984 28.7305C307.802 28.3789 307.678 28.0599 307.613 27.7734C307.561 27.487 307.535 27.2005 307.535 26.9141C307.535 26.0417 307.678 25.306 307.965 24.707C308.264 24.1081 308.811 23.5482 309.605 23.0273C310.413 22.5065 311.402 22.0443 312.574 21.6406C313.746 21.237 315.322 20.7812 317.301 20.2734V17.5586C317.301 16.2435 317.008 15.2604 316.422 14.6094C315.849 13.9583 315.074 13.6328 314.098 13.6328C313.225 13.6328 312.49 13.8086 311.891 14.1602C311.305 14.4987 310.947 14.8958 310.816 15.3516C312.092 15.5469 312.73 16.2435 312.73 17.4414C312.73 17.9883 312.535 18.4701 312.145 18.8867C311.754 19.3034 311.207 19.5117 310.504 19.5117C309.918 19.5117 309.397 19.3099 308.941 18.9062C308.486 18.4896 308.258 17.9102 308.258 17.168ZM317.301 25.6055V21.5234C316.103 21.7969 315.113 22.0964 314.332 22.4219C313.551 22.7344 312.952 23.0794 312.535 23.457C312.132 23.8346 311.852 24.2253 311.695 24.6289C311.539 25.0195 311.461 25.4753 311.461 25.9961C311.461 26.6471 311.65 27.1615 312.027 27.5391C312.418 27.9036 312.893 28.0859 313.453 28.0859C314.755 28.0859 316.038 27.2591 317.301 25.6055ZM353.004 0.644531C354.033 0.644531 355.055 0.716146 356.07 0.859375C357.099 0.989583 358.082 1.15234 359.02 1.34766C359.97 1.52995 360.868 1.71224 361.715 1.89453C362.561 2.07682 363.323 2.20703 364 2.28516C363.844 2.75391 363.766 3.58073 363.766 4.76562C363.766 7.07031 364.111 9.06901 364.801 10.7617C364.723 10.9961 364.482 11.1393 364.078 11.1914L363.238 9.39453C362.822 8.49609 362.32 7.61068 361.734 6.73828C361.148 5.85286 360.445 5.0651 359.625 4.375C358.805 3.67188 357.848 3.10547 356.754 2.67578C355.673 2.24609 354.423 2.03125 353.004 2.03125C351.78 2.03125 350.693 2.23307 349.742 2.63672C348.792 3.04036 347.958 3.58724 347.242 4.27734C346.526 4.95443 345.921 5.7487 345.426 6.66016C344.931 7.55859 344.527 8.51562 344.215 9.53125C343.915 10.5469 343.694 11.5885 343.551 12.6562C343.421 13.724 343.355 14.7591 343.355 15.7617C343.355 17.4284 343.57 19.0234 344 20.5469C344.443 22.0703 345.126 23.418 346.051 24.5898C346.975 25.7487 348.147 26.6732 349.566 27.3633C350.999 28.0534 352.704 28.3984 354.684 28.3984C358.473 28.3984 361.337 27.2135 363.277 24.8438C363.486 24.8438 363.655 24.9023 363.785 25.0195C363.928 25.1367 364 25.2799 364 25.4492C363.375 26.3737 362.613 27.1745 361.715 27.8516C360.829 28.5286 359.885 29.0885 358.883 29.5312C357.88 29.9609 356.865 30.2799 355.836 30.4883C354.82 30.6966 353.876 30.8008 353.004 30.8008C352.053 30.8008 351.025 30.6966 349.918 30.4883C348.824 30.293 347.724 29.9609 346.617 29.4922C345.523 29.0234 344.469 28.4115 343.453 27.6562C342.451 26.888 341.559 25.9505 340.777 24.8438C339.996 23.724 339.371 22.4154 338.902 20.918C338.434 19.4206 338.199 17.7018 338.199 15.7617C338.199 13.8086 338.434 12.0833 338.902 10.5859C339.371 9.07552 339.996 7.76042 340.777 6.64062C341.572 5.52083 342.477 4.58333 343.492 3.82812C344.521 3.0599 345.582 2.44141 346.676 1.97266C347.77 1.49089 348.863 1.15234 349.957 0.957031C351.051 0.748698 352.066 0.644531 353.004 0.644531ZM367.203 1.91406C369.677 1.67969 371.871 1.14583 373.785 0.3125C374.137 0.455729 374.365 0.63151 374.469 0.839844V15.8398C375.758 14.7461 376.969 13.8737 378.102 13.2227C379.234 12.5716 380.387 12.2461 381.559 12.2461C383.03 12.2461 384.078 12.6628 384.703 13.4961C385.328 14.3294 385.654 15.6315 385.68 17.4023L385.836 27.3242C385.849 27.6628 385.947 27.9557 386.129 28.2031C386.324 28.4375 386.598 28.6198 386.949 28.75C387.301 28.8802 387.594 28.9779 387.828 29.043C388.062 29.0951 388.368 29.1471 388.746 29.1992C388.811 29.5247 388.844 29.7005 388.844 29.7266C388.844 29.7917 388.811 29.9219 388.746 30.1172C387.066 30.0391 385.536 30 384.156 30C382.763 30 381.227 30.0391 379.547 30.1172C379.495 29.9089 379.469 29.7526 379.469 29.6484C379.469 29.5573 379.495 29.4076 379.547 29.1992C379.885 29.1471 380.165 29.0951 380.387 29.043C380.621 28.9779 380.882 28.8802 381.168 28.75C381.467 28.6198 381.689 28.4375 381.832 28.2031C381.988 27.9557 382.066 27.6628 382.066 27.3242L382.105 18.0469C382.105 15.6901 381.402 14.5117 379.996 14.5117C378.681 14.5117 376.839 15.3646 374.469 17.0703C374.521 22.487 374.573 25.9049 374.625 27.3242C374.638 27.5977 374.716 27.8451 374.859 28.0664C375.016 28.2747 375.185 28.444 375.367 28.5742C375.549 28.6914 375.797 28.8021 376.109 28.9062C376.422 28.9974 376.663 29.0625 376.832 29.1016C377.014 29.1276 377.255 29.1602 377.555 29.1992C377.633 29.3555 377.672 29.5182 377.672 29.6875C377.672 29.8568 377.633 30 377.555 30.1172C375.836 30.0391 374.169 30 372.555 30C370.966 30 369.312 30.0391 367.594 30.1172C367.542 29.9089 367.516 29.7656 367.516 29.6875C367.516 29.6224 367.542 29.4596 367.594 29.1992C368.023 29.1471 368.368 29.0951 368.629 29.043C368.902 28.9779 369.241 28.8802 369.645 28.75C370.061 28.6198 370.374 28.4375 370.582 28.2031C370.79 27.9557 370.901 27.6628 370.914 27.3242C370.966 26.0352 370.992 23.151 370.992 18.6719C370.992 16.6016 370.986 13.7826 370.973 10.2148C370.96 6.64714 370.953 4.45312 370.953 3.63281C370.211 3.20312 368.961 2.9362 367.203 2.83203C367.138 2.66276 367.105 2.50651 367.105 2.36328C367.105 2.23307 367.138 2.08333 367.203 1.91406ZM393.18 17.168C393.18 15.7357 393.831 14.5573 395.133 13.6328C396.448 12.7083 397.997 12.2461 399.781 12.2461C401.969 12.2461 403.505 12.6823 404.391 13.5547C405.289 14.4271 405.738 15.8984 405.738 17.9688V26.0742C405.738 26.8034 406.005 27.168 406.539 27.168C406.969 27.168 407.516 26.6471 408.18 25.6055C408.648 25.6445 408.967 25.8529 409.137 26.2305C409.046 26.3607 408.889 26.5951 408.668 26.9336C408.447 27.2721 408.284 27.513 408.18 27.6562C408.076 27.7995 407.913 28.0208 407.691 28.3203C407.47 28.6068 407.288 28.8216 407.145 28.9648C407.014 29.1081 406.832 29.2773 406.598 29.4727C406.376 29.668 406.168 29.8177 405.973 29.9219C405.79 30.013 405.576 30.0911 405.328 30.1562C405.081 30.2344 404.833 30.2734 404.586 30.2734C403.935 30.2734 403.395 30.0391 402.965 29.5703C402.548 29.1016 402.301 28.3789 402.223 27.4023C402.21 27.4154 402.008 27.6042 401.617 27.9688C401.227 28.3333 400.953 28.5807 400.797 28.7109C400.654 28.8281 400.374 29.043 399.957 29.3555C399.553 29.6549 399.208 29.8698 398.922 30C398.635 30.1302 398.277 30.2539 397.848 30.3711C397.418 30.5013 396.995 30.5664 396.578 30.5664C395.914 30.5664 395.322 30.4753 394.801 30.293C394.293 30.1107 393.896 29.8893 393.609 29.6289C393.323 29.3685 393.089 29.069 392.906 28.7305C392.724 28.3789 392.6 28.0599 392.535 27.7734C392.483 27.487 392.457 27.2005 392.457 26.9141C392.457 26.0417 392.6 25.306 392.887 24.707C393.186 24.1081 393.733 23.5482 394.527 23.0273C395.335 22.5065 396.324 22.0443 397.496 21.6406C398.668 21.237 400.243 20.7812 402.223 20.2734V17.5586C402.223 16.2435 401.93 15.2604 401.344 14.6094C400.771 13.9583 399.996 13.6328 399.02 13.6328C398.147 13.6328 397.411 13.8086 396.812 14.1602C396.227 14.4987 395.868 14.8958 395.738 15.3516C397.014 15.5469 397.652 16.2435 397.652 17.4414C397.652 17.9883 397.457 18.4701 397.066 18.8867C396.676 19.3034 396.129 19.5117 395.426 19.5117C394.84 19.5117 394.319 19.3099 393.863 18.9062C393.408 18.4896 393.18 17.9102 393.18 17.168ZM402.223 25.6055V21.5234C401.025 21.7969 400.035 22.0964 399.254 22.4219C398.473 22.7344 397.874 23.0794 397.457 23.457C397.053 23.8346 396.773 24.2253 396.617 24.6289C396.461 25.0195 396.383 25.4753 396.383 25.9961C396.383 26.6471 396.572 27.1615 396.949 27.5391C397.34 27.9036 397.815 28.0859 398.375 28.0859C399.677 28.0859 400.96 27.2591 402.223 25.6055ZM411.617 13.9258C414.143 13.6654 416.344 13.1315 418.219 12.3242C418.544 12.4544 418.772 12.6237 418.902 12.832V16.1914C419.384 15.2799 420.1 14.3945 421.051 13.5352C422.014 12.6758 423.017 12.2461 424.059 12.2461C424.84 12.2461 425.471 12.4805 425.953 12.9492C426.448 13.4049 426.695 14.0365 426.695 14.8438C426.695 15.612 426.467 16.2109 426.012 16.6406C425.556 17.0703 424.983 17.2852 424.293 17.2852C423.655 17.2852 423.128 17.0833 422.711 16.6797C422.307 16.263 422.086 15.7161 422.047 15.0391C421.5 15.2734 420.875 15.7943 420.172 16.6016C419.482 17.4089 419.059 18.2096 418.902 19.0039C418.902 21.9076 418.954 24.681 419.059 27.3242C419.072 27.6628 419.195 27.9557 419.43 28.2031C419.664 28.4375 420.009 28.6198 420.465 28.75C420.921 28.8802 421.298 28.9779 421.598 29.043C421.897 29.0951 422.288 29.1471 422.77 29.1992C422.848 29.3555 422.887 29.5182 422.887 29.6875C422.887 29.8177 422.848 29.9609 422.77 30.1172C420.816 30.0391 418.883 30 416.969 30C415.38 30 413.727 30.0391 412.008 30.1172C411.956 29.9089 411.93 29.7656 411.93 29.6875C411.93 29.6224 411.956 29.4596 412.008 29.1992C412.438 29.1471 412.789 29.0951 413.062 29.043C413.336 28.9779 413.674 28.8802 414.078 28.75C414.482 28.6198 414.788 28.4375 414.996 28.2031C415.204 27.9557 415.315 27.6628 415.328 27.3242C415.38 26.0352 415.406 24.4727 415.406 22.6367C415.406 22.0247 415.4 20.9831 415.387 19.5117C415.374 18.0404 415.367 16.7513 415.367 15.6445C414.625 15.1888 413.375 14.9219 411.617 14.8438C411.565 14.6354 411.539 14.4727 411.539 14.3555C411.539 14.2773 411.565 14.1341 411.617 13.9258ZM431.031 17.168C431.031 15.7357 431.682 14.5573 432.984 13.6328C434.299 12.7083 435.849 12.2461 437.633 12.2461C439.82 12.2461 441.357 12.6823 442.242 13.5547C443.141 14.4271 443.59 15.8984 443.59 17.9688V26.0742C443.59 26.8034 443.857 27.168 444.391 27.168C444.82 27.168 445.367 26.6471 446.031 25.6055C446.5 25.6445 446.819 25.8529 446.988 26.2305C446.897 26.3607 446.741 26.5951 446.52 26.9336C446.298 27.2721 446.135 27.513 446.031 27.6562C445.927 27.7995 445.764 28.0208 445.543 28.3203C445.322 28.6068 445.139 28.8216 444.996 28.9648C444.866 29.1081 444.684 29.2773 444.449 29.4727C444.228 29.668 444.02 29.8177 443.824 29.9219C443.642 30.013 443.427 30.0911 443.18 30.1562C442.932 30.2344 442.685 30.2734 442.438 30.2734C441.786 30.2734 441.246 30.0391 440.816 29.5703C440.4 29.1016 440.152 28.3789 440.074 27.4023C440.061 27.4154 439.859 27.6042 439.469 27.9688C439.078 28.3333 438.805 28.5807 438.648 28.7109C438.505 28.8281 438.225 29.043 437.809 29.3555C437.405 29.6549 437.06 29.8698 436.773 30C436.487 30.1302 436.129 30.2539 435.699 30.3711C435.27 30.5013 434.846 30.5664 434.43 30.5664C433.766 30.5664 433.173 30.4753 432.652 30.293C432.145 30.1107 431.747 29.8893 431.461 29.6289C431.174 29.3685 430.94 29.069 430.758 28.7305C430.576 28.3789 430.452 28.0599 430.387 27.7734C430.335 27.487 430.309 27.2005 430.309 26.9141C430.309 26.0417 430.452 25.306 430.738 24.707C431.038 24.1081 431.585 23.5482 432.379 23.0273C433.186 22.5065 434.176 22.0443 435.348 21.6406C436.52 21.237 438.095 20.7812 440.074 20.2734V17.5586C440.074 16.2435 439.781 15.2604 439.195 14.6094C438.622 13.9583 437.848 13.6328 436.871 13.6328C435.999 13.6328 435.263 13.8086 434.664 14.1602C434.078 14.4987 433.72 14.8958 433.59 15.3516C434.866 15.5469 435.504 16.2435 435.504 17.4414C435.504 17.9883 435.309 18.4701 434.918 18.8867C434.527 19.3034 433.98 19.5117 433.277 19.5117C432.691 19.5117 432.171 19.3099 431.715 18.9062C431.259 18.4896 431.031 17.9102 431.031 17.168ZM440.074 25.6055V21.5234C438.876 21.7969 437.887 22.0964 437.105 22.4219C436.324 22.7344 435.725 23.0794 435.309 23.457C434.905 23.8346 434.625 24.2253 434.469 24.6289C434.312 25.0195 434.234 25.4753 434.234 25.9961C434.234 26.6471 434.423 27.1615 434.801 27.5391C435.191 27.9036 435.667 28.0859 436.227 28.0859C437.529 28.0859 438.811 27.2591 440.074 25.6055ZM459.82 29.1992C459.898 29.3555 459.938 29.5182 459.938 29.6875C459.938 29.8177 459.898 29.9609 459.82 30.1172C458.102 30.0391 456.435 30 454.82 30C453.232 30 451.578 30.0391 449.859 30.1172C449.807 29.9089 449.781 29.7656 449.781 29.6875C449.781 29.6224 449.807 29.4596 449.859 29.1992C450.289 29.1471 450.641 29.0951 450.914 29.043C451.188 28.9779 451.526 28.8802 451.93 28.75C452.333 28.6198 452.639 28.4375 452.848 28.2031C453.056 27.9557 453.167 27.6628 453.18 27.3242C453.232 26.0352 453.258 24.4727 453.258 22.6367C453.258 22.0247 453.251 20.9831 453.238 19.5117C453.225 18.0404 453.219 16.7513 453.219 15.6445C452.477 15.1888 451.227 14.9219 449.469 14.8438C449.417 14.6354 449.391 14.4727 449.391 14.3555C449.391 14.2773 449.417 14.1341 449.469 13.9258C451.995 13.6654 454.195 13.1315 456.07 12.3242C456.396 12.4544 456.624 12.6237 456.754 12.832V15.918C458.017 14.8112 459.228 13.9258 460.387 13.2617C461.546 12.5846 462.717 12.2461 463.902 12.2461C465.387 12.2461 466.435 12.6628 467.047 13.4961C467.672 14.3294 467.997 15.6315 468.023 17.4023L468.219 27.3242C468.232 27.6628 468.329 27.9557 468.512 28.2031C468.707 28.4375 468.98 28.6198 469.332 28.75C469.697 28.8802 469.996 28.9779 470.23 29.043C470.465 29.0951 470.771 29.1471 471.148 29.1992C471.201 29.4596 471.227 29.6354 471.227 29.7266C471.227 29.8307 471.201 29.9609 471.148 30.1172C469.469 30.0391 467.919 30 466.5 30C465.12 30 463.59 30.0391 461.91 30.1172C461.858 29.9089 461.832 29.7526 461.832 29.6484C461.832 29.5573 461.858 29.4076 461.91 29.1992C462.249 29.1471 462.529 29.0951 462.75 29.043C462.984 28.9779 463.245 28.8802 463.531 28.75C463.831 28.6198 464.052 28.4375 464.195 28.2031C464.352 27.9557 464.43 27.6628 464.43 27.3242L464.469 18.0469C464.469 15.6901 463.759 14.5117 462.34 14.5117C461.012 14.5117 459.15 15.3971 456.754 17.168C456.754 20.957 456.806 24.3424 456.91 27.3242C456.923 27.6628 457.021 27.9557 457.203 28.2031C457.398 28.4375 457.672 28.6198 458.023 28.75C458.375 28.8802 458.668 28.9779 458.902 29.043C459.137 29.0951 459.443 29.1471 459.82 29.1992Z" fill="url(#paint0_linear_11_2)"/>
<defs>
<linearGradient id="paint0_linear_11_2" x1="242" y1="-11" x2="242" y2="49" gradientUnits="userSpaceOnUse">
<stop stop-color="#A29B9B"/>
<stop offset="0.65" stop-color="#666666"/>
</linearGradient>
</defs>
</svg>
